<?xml version="1.0" encoding="UTF-8"?>
<!-- Akademie Louny · logo 03 Hala · písmo Jost (SIL OFL 1.1) převedené do křivek · znak: míček (modrá #2F6BFF, červená #FF3B4E, švy průhledné) -->
<svg xmlns="http://www.w3.org/2000/svg" viewBox="0 0 200 200" width="200" height="200" role="img" aria-label="Akademie Louny — znak"><title>Akademie Louny — znak</title><path fill="#2F6BFF" d="M107.34 0.27Q105.26 9.75 105.26 19.65Q105.26 37.65 112.14 54.28Q119.03 70.92 131.76 83.64Q144.49 96.37 161.12 103.26Q177.75 110.15 195.76 110.15Q197.63 110.15 199.49 110.08C197.18 132.9 187.07 154.35 170.71 170.71C151.96 189.46 126.52 200 100 200C97.54 200 95.1 199.91 92.66 199.73Q94.74 190.25 94.74 180.35Q94.74 162.35 87.86 145.72Q80.97 129.08 68.24 116.36Q55.51 103.63 38.88 96.74Q22.25 89.85 4.24 89.85Q2.37 89.85 0.51 89.92C2.82 67.1 12.93 45.65 29.29 29.29C48.04 10.54 73.48 0 100 0C102.46 0 104.9 0.09 107.34 0.27ZM63.74 180.35Q63.74 186.78 62.56 192.73C50.22 187.74 38.88 180.3 29.29 170.71C15.54 156.96 6.2 139.61 2.2 120.88Q3.22 120.85 4.24 120.85Q28.89 120.85 46.32 138.28Q63.74 155.7 63.74 180.35Z"/><path fill="#FF3B4E" d="M137.44 7.27C149.78 12.26 161.12 19.7 170.71 29.29C184.46 43.04 193.8 60.39 197.8 79.12Q196.78 79.15 195.76 79.15Q171.11 79.15 153.68 61.72Q136.26 44.3 136.26 19.65Q136.26 13.22 137.44 7.27Z"/></svg>
